<svg width="39" height="39" viewBox="0 0 39 39" fill="none" xmlns="http://www.w3.org/2000/svg">
<path d="M29.9702 9.02994L31.4702 9.02438L31.4647 7.53553L29.9758 7.52995L29.9702 9.02994ZM21.7325 15.1785C21.1481 15.7656 21.1502 16.7154 21.7373 17.2999C22.3244 17.8843 23.2741 17.8822 23.8586 17.2951L21.7325 15.1785ZM10.0298 28.9701L8.52982 28.9756L8.53534 30.4645L10.0242 30.47L10.0298 28.9701ZM18.2675 22.8215C18.8519 22.2344 18.8498 21.2846 18.2627 20.7001C17.6756 20.1157 16.7259 20.1178 16.1414 20.7049L18.2675 22.8215ZM21.963 10.5L29.9646 10.5299L29.9758 7.52995L21.9742 7.50001L21.963 10.5ZM28.4702 9.03551L28.5 17.0731L31.5 17.062L31.4702 9.02438L28.4702 9.03551ZM28.9072 7.97167L21.7325 15.1785L23.8586 17.2951L31.0332 10.0882L28.9072 7.97167ZM8.50001 20.938L8.52982 28.9756L11.5298 28.9645L11.5 20.9269L8.50001 20.938ZM10.0242 30.47L18.0258 30.5L18.037 27.5L10.0354 27.4701L10.0242 30.47ZM11.0928 30.0283L18.2675 22.8215L16.1414 20.7049L8.96677 27.9118L11.0928 30.0283Z" fill="#937CE6"/>
</svg>
